<svg xmlns="http://www.w3.org/2000/svg" viewBox="0 0 1080 1080"><defs><style>.cls-1{fill:none;}.cls-2{fill:#1b0044;}.cls-3{fill:#f6c90e;}</style></defs><title>Recurso 9</title><g id="Capa_2" data-name="Capa 2"><g id="Capa_1-2" data-name="Capa 1"><rect class="cls-1" width="1080" height="1080" rx="150.24"/><rect class="cls-2" x="407.19" y="598.87" width="267.45" height="339.29"/><polygon class="cls-2" points="138.91 146.39 138.91 596.91 406.87 596.91 406.87 473.57 272.89 473.57 272.89 279.97 807.78 279.97 807.78 473.57 674.83 473.57 674.83 597.81 940.35 597.81 940.35 143.96 138.91 146.39"/><rect class="cls-3" x="407.19" y="598.87" width="267.45" height="339.29"/><polygon class="cls-3" points="138.91 146.39 138.91 596.91 406.87 596.91 406.87 473.57 272.89 473.57 272.89 279.97 807.78 279.97 807.78 473.57 674.83 473.57 674.83 597.81 940.35 597.81 940.35 143.96 138.91 146.39"/></g></g></svg>